<svg width="61" height="60" viewBox="0 0 61 60" fill="none" xmlns="http://www.w3.org/2000/svg">
<path d="M22.5 28C19.8478 28 17.3043 26.9464 15.4289 25.0711C13.5536 23.1957 12.5 20.6522 12.5 18V10C12.5 9.46957 12.7107 8.96086 13.0858 8.58579C13.4609 8.21071 13.9696 8 14.5 8H16.5C17.0304 8 17.5391 7.78929 17.9142 7.41421C18.2893 7.03914 18.5 6.53043 18.5 6C18.5 5.46957 18.2893 4.96086 17.9142 4.58579C17.5391 4.21071 17.0304 4 16.5 4H14.5C12.9087 4 11.3826 4.63214 10.2574 5.75736C9.13214 6.88258 8.5 8.4087 8.5 10V18C8.50257 20.2595 9.05354 22.4846 10.1056 24.4842C11.1577 26.4838 12.6794 28.1981 14.54 29.48C16.3295 31.0545 17.7804 32.9762 18.8049 35.1283C19.8294 37.2805 20.4061 39.6183 20.5 42C20.5 45.713 21.975 49.274 24.6005 51.8995C27.226 54.525 30.787 56 34.5 56C38.213 56 41.774 54.525 44.3995 51.8995C47.025 49.274 48.5 45.713 48.5 42V39.72C50.3853 39.2332 52.0284 38.0755 53.1212 36.464C54.214 34.8524 54.6816 32.8976 54.4362 30.966C54.1909 29.0344 53.2495 27.2585 51.7885 25.9714C50.3275 24.6842 48.4471 23.974 46.5 23.974C44.5529 23.974 42.6725 24.6842 41.2115 25.9714C39.7505 27.2585 38.8091 29.0344 38.5638 30.966C38.3184 32.8976 38.786 34.8524 39.8788 36.464C40.9716 38.0755 42.6147 39.2332 44.5 39.72V42C44.5 44.6522 43.4464 47.1957 41.5711 49.0711C39.6957 50.9464 37.1522 52 34.5 52C31.8478 52 29.3043 50.9464 27.4289 49.0711C25.5536 47.1957 24.5 44.6522 24.5 42C24.5989 39.6153 25.1819 37.2757 26.2133 35.1234C27.2448 32.9711 28.7032 31.051 30.5 29.48C32.3533 28.1937 33.8672 26.4774 34.9121 24.478C35.9571 22.4787 36.5019 20.2559 36.5 18V10C36.5 8.4087 35.8679 6.88258 34.7426 5.75736C33.6174 4.63214 32.0913 4 30.5 4H28.5C27.9696 4 27.4609 4.21071 27.0858 4.58579C26.7107 4.96086 26.5 5.46957 26.5 6C26.5 6.53043 26.7107 7.03914 27.0858 7.41421C27.4609 7.78929 27.9696 8 28.5 8H30.5C31.0304 8 31.5391 8.21071 31.9142 8.58579C32.2893 8.96086 32.5 9.46957 32.5 10V18C32.5 19.3132 32.2413 20.6136 31.7388 21.8268C31.2362 23.0401 30.4997 24.1425 29.5711 25.0711C28.6425 25.9997 27.5401 26.7362 26.3268 27.2388C25.1136 27.7413 23.8132 28 22.5 28ZM46.5 36C45.4391 36 44.4217 35.5786 43.6716 34.8284C42.9214 34.0783 42.5 33.0609 42.5 32C42.5 30.9391 42.9214 29.9217 43.6716 29.1716C44.4217 28.4214 45.4391 28 46.5 28C47.5609 28 48.5783 28.4214 49.3284 29.1716C50.0786 29.9217 50.5 30.9391 50.5 32C50.5 33.0609 50.0786 34.0783 49.3284 34.8284C48.5783 35.5786 47.5609 36 46.5 36Z" fill="white"/>
</svg>
