<svg width="60" height="60" viewBox="0 0 60 60" fill="none" xmlns="http://www.w3.org/2000/svg">
<path d="M22.813 24.2502C22.813 25.7751 23.4188 27.2376 24.4971 28.3159C25.5753 29.3941 27.0378 29.9999 28.5627 29.9999C30.0876 29.9999 31.55 29.3941 32.6283 28.3159C33.7066 27.2376 34.3123 25.7751 34.3123 24.2502C34.3123 22.7253 33.7066 21.2629 32.6283 20.1846C31.55 19.1063 30.0876 18.5006 28.5627 18.5006C27.0378 18.5006 25.5753 19.1063 24.4971 20.1846C23.4188 21.2629 22.813 22.7253 22.813 24.2502Z" stroke="white" stroke-width="4" stroke-linecap="round" stroke-linejoin="round"/>
<path d="M21.6861 40.5851C14.3342 38.5458 8.0019 33.1009 2.68921 24.2503C9.5888 12.7509 18.2133 7.00128 28.5627 7.00128C38.9121 7.00128 47.5366 12.7509 54.4362 24.2503M45.2367 49.5977L38.9926 52.8692C38.8073 52.9657 38.5988 53.0087 38.3905 52.9935C38.1821 52.9784 37.9821 52.9056 37.8127 52.7833C37.6433 52.6611 37.5113 52.4941 37.4313 52.3012C37.3513 52.1082 37.3265 51.8968 37.3597 51.6905L38.5527 44.7593L33.5016 39.852C33.3509 39.7062 33.2441 39.521 33.1936 39.3175C33.143 39.114 33.1507 38.9004 33.2158 38.701C33.2808 38.5017 33.4006 38.3246 33.5615 38.1901C33.7223 38.0556 33.9178 37.969 34.1255 37.9402L41.1056 36.9283L44.2276 30.6238C44.321 30.436 44.4649 30.278 44.6432 30.1676C44.8215 30.0571 45.027 29.9986 45.2367 29.9986C45.4464 29.9986 45.652 30.0571 45.8302 30.1676C46.0085 30.278 46.1524 30.436 46.2458 30.6238L49.3678 36.9283L56.3479 37.9402C56.555 37.97 56.7497 38.0572 56.9098 38.1918C57.07 38.3265 57.1892 38.5033 57.2542 38.7022C57.3191 38.9011 57.327 39.1142 57.2771 39.3174C57.2272 39.5206 57.1214 39.7058 56.9718 39.852L51.9207 44.7593L53.1109 51.6877C53.1466 51.8943 53.1237 52.1067 53.0447 52.301C52.9657 52.4952 52.8339 52.6634 52.6641 52.7864C52.4943 52.9095 52.2935 52.9825 52.0843 52.9971C51.8752 53.0117 51.6661 52.9674 51.4808 52.8692L45.2367 49.5977Z" stroke="white" stroke-width="4" stroke-linecap="round" stroke-linejoin="round"/>
</svg>
